<svg xmlns="http://www.w3.org/2000/svg" viewBox="0 0 219.69 197.67"><defs><style>.cls-1{fill:#16cc8e;stroke:#16cc8e;}.cls-1,.cls-2,.cls-3,.cls-4,.cls-5,.cls-6{stroke-linejoin:bevel;stroke-width:2px;}.cls-2{fill:#fff;}.cls-2,.cls-5,.cls-6{stroke:#282828;}.cls-3{fill:#b0eacd;stroke:#b0eacd;}.cls-4{fill:#fd5e53;stroke:#fd5e53;}.cls-5{fill:none;}.cls-6{fill:#282828;}</style></defs><title>Asset 52</title><g id="Layer_2" data-name="Layer 2"><g id="Home_Illustrations" data-name="Home Illustrations"><circle class="cls-1" cx="137.24" cy="42.18" r="27.74"/><path class="cls-2" d="M.88,196.67H90.44s29.25-70.83,21-80.89-10.06-17.36-2.75-32.9,19.65-35.64,12.8-36.56S31.5,142.75.88,196.67Z"/><path class="cls-2" d="M25.68,158.62s16-45.9,25.76-56.16,24.37-8.4,24.37-8.4Z"/><rect class="cls-3" x="20.2" y="9.42" width="42.07" height="42.07" transform="translate(-9.46 38.08) rotate(-45)"/><polygon class="cls-4" points="161.32 96.77 206.53 128.62 219.2 64.24 161.32 96.77"/><line class="cls-5" x1="107.85" y1="110.85" x2="101.56" y2="121.49"/><line class="cls-5" x1="105.36" y1="91.48" x2="89.19" y2="115.78"/><path class="cls-6" d="M16.27,172.15H99.83l-9.39,24.52H.88S6.87,185.69,16.27,172.15Z"/></g></g></svg>