<svg xmlns="http://www.w3.org/2000/svg" viewBox="0 0 272.52 199.62"><defs><style>.cls-1{fill:none;}.cls-1,.cls-3{stroke:#282828;}.cls-1,.cls-2,.cls-3,.cls-4{stroke-linejoin:bevel;stroke-width:2px;}.cls-2{fill:#fd5e53;stroke:#fd5e53;}.cls-3{fill:#282828;}.cls-4{fill:#16cc8e;stroke:#16cc8e;}</style></defs><title>Asset 39</title><g id="Layer_2" data-name="Layer 2"><g id="Home_Illustrations" data-name="Home Illustrations"><path class="cls-1" d="M169.94,33.76s4.62-3.39,6,.32-6,12.78-6,12.78"/><path class="cls-1" d="M134.1,34.08s-4.58-1.58-4.24,2.35,5,9.3,5,9.3"/><path class="cls-2" d="M68.3,32.2c7.06-3.27,18.23-13,18.23-13-.49,7.06,15.6,15.63,15.6,15.63l-9.92,28L119,64.69S118.06,24.62,108,12C104,7.06,98.48,5.32,93.15,5A30.4,30.4,0,0,0,68.88,15.45a70.65,70.65,0,0,0-14,23.79c-6.9,20.2-7.72,24.44-7.72,24.44H72.58l.23-1.45S65.18,60.15,66,53Z"/><path class="cls-1" d="M223.21,53.77s-7.3,13,2.08,16.73,28.49,11.76,28.49,11.76,25.47,9.18,15.37,59.66H242.71"/><path class="cls-1" d="M192.05,29.92s-2.59,1.17-3.05,6.57,7.46,4.9,7.46,4.9-1.05,9.25-2.78,20.84-26.75,22.11-26.75,22.11"/><path class="cls-1" d="M210.84,55.52l9.62-.88a11.77,11.77,0,0,0,10.65-10.49l3.22-30.68"/><path class="cls-1" d="M138.58,62.23s-2.07,19.48-15.34,22.11-27.72,2.64-36,19.15-28,95.13-28,95.13"/><path class="cls-1" d="M159.81,62.23S153,83.78,170.43,84.34s23.74,11.67,26,46.08,3.17,68.2,3.17,68.2"/><line class="cls-1" x1="86.67" y1="198.62" x2="107.97" y2="126.19"/><line class="cls-1" x1="166.93" y1="130.42" x2="179.07" y2="198.62"/><path class="cls-1" d="M95.22,63.68s-6.78,15.63,0,18A96.7,96.7,0,0,1,108,87.27"/><path class="cls-1" d="M64.69,80.59s-1.32,21.72,30.53,1.08"/><polyline class="cls-1" points="131.31 79.7 146.54 93.47 161.39 80.59"/><path class="cls-1" d="M192.14,66.31S218.22,90,225.29,70.5"/><path class="cls-1" d="M35.65,99.07s3,10-6.19,22.41S15,145.08,20.31,171.33l5.31,26.25"/><path class="cls-1" d="M72.81,62.23S70.75,78.72,61.6,82.55,36.53,79.31,23.26,100,0,198.62,0,198.62H230.6l18.87-88.34"/><polygon class="cls-1" points="262.51 141.92 249.21 198.62 230.6 198.62 242.71 141.92 262.51 141.92"/><path class="cls-1" d="M68.63,29.22,66,53a8.3,8.3,0,0,0,8,8.91l9.94.35"/><path class="cls-3" d="M201.61,19.31l32.72-4L236.43,1l-47.2,2.22,2.82,26.7s3.86,8.13,6.06,7.62S201.61,19.31,201.61,19.31Z"/><polyline class="cls-1" points="219.51 29.39 221.58 36.73 218.89 38.76"/><path class="cls-1" d="M209.68,42.43a7.71,7.71,0,0,0,9.08,3"/><ellipse class="cls-3" cx="212.32" cy="30.55" rx="0.9" ry="1.58"/><ellipse class="cls-3" cx="145.45" cy="35.98" rx="0.9" ry="1.58"/><ellipse class="cls-3" cx="160.48" cy="35.98" rx="0.9" ry="1.58"/><ellipse class="cls-3" cx="74.93" cy="36.43" rx="0.9" ry="1.58"/><ellipse class="cls-3" cx="88.6" cy="36.43" rx="0.9" ry="1.58"/><ellipse class="cls-3" cx="226.35" cy="29.39" rx="0.9" ry="1.58"/><polyline class="cls-1" points="81.64 38.67 79.53 43.71 81.11 45.73"/><path class="cls-1" d="M76.83,50.75s7.09,3,12.79-1.84"/><line class="cls-3" x1="153.14" y1="37.56" x2="153.14" y2="45.73"/><path class="cls-1" d="M231.67,38.76s5.41-4.9,4.7-8.56-3.56-2-3.56-2"/><path class="cls-3" d="M72.81,62.23H83.9S79,70.58,71.11,69.56Z"/><path class="cls-3" d="M138.36,63.68s9.57,12.81,20.18,8.58l1-8.58Z"/><path class="cls-3" d="M222.58,54.25s-13,1.55-17.08-1.21c0,0,3.71,13.83,15.12,11.65C220.62,64.69,220.37,57.19,222.58,54.25Z"/><polygon class="cls-3" points="262.51 141.92 240.27 153.36 242.71 141.92 262.51 141.92"/><polygon class="cls-3" points="86.67 198.62 100.82 150.51 92.21 198.62 86.67 198.62"/><polygon class="cls-3" points="170.31 149.43 170.31 198.62 179.07 198.62 170.31 149.43"/><polygon class="cls-3" points="19.3 165.69 26.06 198.62 16.26 198.62 19.3 165.69"/><path class="cls-4" d="M131.6,26.17s-7.07-21,14.22-15.18c0,0,13.46-13.34,24.64-8.17s18.84,24-16.68,20.85l-15.72-.5L138.89,44a3.77,3.77,0,0,0,3.79,3.62l20.78-.14a3.6,3.6,0,0,0,3.5-2.91l3.66-19h0s4.52,36.75-5.31,37.29S131.66,66.74,132,54.4a143.07,143.07,0,0,1,2.66-23.22Z"/><path class="cls-1" d="M146.11,50.43a9.77,9.77,0,0,0,8.79,2.23"/></g></g></svg>