<svg xmlns="http://www.w3.org/2000/svg" viewBox="0 0 158.04 130.65"><defs><style>.cls-1,.cls-4{fill:none;}.cls-1,.cls-2,.cls-6{stroke:#282828;}.cls-1,.cls-2,.cls-3,.cls-4,.cls-5,.cls-6{stroke-linejoin:bevel;stroke-width:2px;}.cls-2{fill:#fff;}.cls-3{fill:#16cc8e;stroke:#16cc8e;}.cls-4{stroke:#fd5e53;}.cls-5{fill:#b0eacd;stroke:#b0eacd;}.cls-6{fill:#282828;}</style></defs><title>Asset 47</title><g id="Layer_2" data-name="Layer 2"><g id="Home_Illustrations" data-name="Home Illustrations"><polygon class="cls-1" points="134.65 129.65 19.84 129.65 42.26 25.01 157.06 25.01 134.65 129.65"/><polygon class="cls-2" points="115.78 105.65 0.98 105.65 23.39 1 138.2 1 115.78 105.65"/><polygon class="cls-1" points="115.45 28.94 34.17 28.94 36.78 16.75 118.06 16.75 115.45 28.94"/><polygon class="cls-3" points="63.56 41.13 31.56 41.13 34.17 28.94 66.18 28.94 63.56 41.13"/><polygon class="cls-1" points="60.95 53.32 28.95 53.32 31.56 41.13 63.56 41.13 60.95 53.32"/><polygon class="cls-4" points="55.73 77.71 23.73 77.71 26.34 65.52 58.34 65.52 55.73 77.71"/><polygon class="cls-1" points="53.12 89.9 21.11 89.9 23.73 77.71 55.73 77.71 53.12 89.9"/><ellipse class="cls-1" cx="87.26" cy="58.06" rx="19.32" ry="15.6" transform="translate(-16.45 73.2) rotate(-41.94)"/><polyline class="cls-5" points="95.72 37.01 87.26 58.06 106.94 47.23"/><polygon class="cls-6" points="133.06 25.01 123.55 115.66 24.98 105.65 115.78 105.65 133.06 25.01"/></g></g></svg>