<svg xmlns="http://www.w3.org/2000/svg" viewBox="0 0 159.68 180.97"><defs><style>.cls-1{fill:#16cc8e;stroke:#16cc8e;}.cls-1,.cls-2,.cls-3,.cls-4{stroke-linejoin:bevel;stroke-width:2px;}.cls-2{fill:none;}.cls-2,.cls-4{stroke:#282828;}.cls-3{fill:#fd5e53;stroke:#fd5e53;}.cls-4{fill:#282828;}</style></defs><title>Asset 38</title><g id="Layer_2" data-name="Layer 2"><g id="Home_Illustrations" data-name="Home Illustrations"><polygon class="cls-1" points="71.53 97.83 80.12 93.19 88.32 98.55 84 111.3 86.39 120.23 76.92 147.14 69.61 120.16 75.34 111.14 71.53 97.83"/><path class="cls-2" d="M125,167.66l18.28-61.57s-7.38-21.8-4.49-24.37,7.69,6.09,7.69,6.09S142.33,72.42,152,71.14s6.1,36.23,6.1,36.23V180H1s10.19-71.31,30.39-82.86S59.28,82,59.28,82l17.64,65.1,24-68.31s32.7-1.78,40.27,34.2"/><polygon class="cls-2" points="59.28 82.04 69.7 76.86 79.83 90.14 93 76.86 100.97 78.83 92.96 101.59 80.12 93.19 64.58 101.59 59.28 82.04"/><path class="cls-2" d="M69.7,68.86v8L79.83,90.14,93,76.86l3-26s8.81-1.71,8.24-8.53-5-6.82-5-6.82"/><path class="cls-2" d="M59.28,27l-1.53,27.7A13.48,13.48,0,0,0,69.38,68.69l10.45,1.45"/><path class="cls-3" d="M104.72,27.46a14.92,14.92,0,0,0-1-16.91C97.2,2,88.62,7.85,88.62,7.85s-5.12-2-15.5-6.26-32,15.5-16.2,24.31S89,24.05,89,24.05s4,23.88,7.11,20.33S104.72,27.46,104.72,27.46Z"/><polyline class="cls-2" points="74.23 36.7 70.92 45.04 73.45 47.32"/><path class="cls-2" d="M71.28,54.17s7.19,1.37,11.3-3.08"/><ellipse class="cls-2" cx="82.23" cy="35.68" rx="0.96" ry="1.51"/><ellipse class="cls-2" cx="64.59" cy="35.68" rx="0.96" ry="1.51"/><line class="cls-2" x1="41.37" y1="136.14" x2="35.38" y2="179.97"/><line class="cls-2" x1="143.3" y1="106.09" x2="158.05" y2="107.37"/><polygon class="cls-4" points="69.38 68.69 79.83 70.14 71.72 79.5 69.7 76.86 69.38 68.69"/><polygon class="cls-4" points="136.57 99.71 125.29 166.73 141.24 113.03 136.57 99.71"/><polygon class="cls-4" points="41.37 138.01 45.47 179.97 35.38 179.97 41.37 138.01"/></g></g></svg>