<svg xmlns="http://www.w3.org/2000/svg" viewBox="0 0 193.04 146.38"><defs><style>.cls-1{fill:#fff;}.cls-1,.cls-3,.cls-4{stroke:#282828;}.cls-1,.cls-2,.cls-3,.cls-4,.cls-5,.cls-6{stroke-linejoin:bevel;stroke-width:2px;}.cls-2{fill:#16cc8e;}.cls-2,.cls-5{stroke:#16cc8e;}.cls-3,.cls-5,.cls-6{fill:none;}.cls-4{fill:#282828;}.cls-6{stroke:#b0eacd;}.cls-7{fill:#e6e3da;}</style></defs><title>Asset 46</title><g id="Layer_2" data-name="Layer 2"><g id="Home_Illustrations" data-name="Home Illustrations"><path class="cls-1" d="M95.37,100.06l11.22-50.72s-22.87-8.93-29.3,20.12S95.37,100.06,95.37,100.06Z"/><rect class="cls-2" x="86.91" y="48.73" width="28.13" height="51.95" rx="14.06" transform="translate(183.43 169.45) rotate(-167.53)"/><path class="cls-3" d="M105.13,48.05l9-35A16.22,16.22,0,0,1,129.78,1H163a16.22,16.22,0,0,1,15.86,19.57l-8.47,40"/><polygon class="cls-1" points="91.81 132.16 0.96 132.16 16.27 75.54 107.11 75.54 91.81 132.16"/><polygon class="cls-4" points="107.11 75.54 54.04 103.85 16.27 75.54 56.49 109.7 107.11 75.54"/><line class="cls-5" x1="22.48" y1="105.76" x2="35.74" y2="105.76"/><line class="cls-6" x1="20.95" y1="111.44" x2="34.21" y2="111.44"/><rect class="cls-7" x="153.3" y="49.84" width="28.13" height="51.95" rx="14.06" transform="translate(17.78 -30.88) rotate(11.13)"/><path class="cls-1" d="M162.35,101.29l10-51s24.53,1,18.78,30.16S162.35,101.29,162.35,101.29Z"/><line class="cls-3" x1="162.35" y1="101.29" x2="130.15" y2="127.6"/><rect class="cls-4" x="105.26" y="127.71" width="37.16" height="9.43" rx="4.71" transform="translate(-54.47 99.56) rotate(-36.48)"/></g></g></svg>