<svg xmlns="http://www.w3.org/2000/svg" viewBox="0 0 160.81 106.89"><defs><style>.cls-1,.cls-5{fill:#282828;}.cls-1,.cls-2,.cls-4{stroke:#282828;}.cls-1,.cls-2,.cls-3,.cls-4{stroke-linejoin:bevel;stroke-width:2px;}.cls-2{fill:#fff;}.cls-3{fill:#16cc8e;stroke:#16cc8e;}.cls-4{fill:none;}</style></defs><title>Asset 50</title><g id="Layer_2" data-name="Layer 2"><g id="Home_Illustrations" data-name="Home Illustrations"><polygon class="cls-1" points="0.94 89.69 139.25 105.89 160.81 71.53 12.71 71.53 0.94 89.69"/><polyline class="cls-2" points="126.35 71.53 139.25 71.53 131.85 10.86 124.49 80.09 106.99 80.09 129.15 18.38"/><polygon class="cls-3" points="131.85 10.86 29.25 10.86 21.89 31.37 124.49 31.37 131.85 10.86"/><polygon class="cls-2" points="103.54 89.69 0.94 89.69 21.89 31.37 124.49 31.37 103.54 89.69"/><path class="cls-4" d="M51.13,20.72c-3,0-3.79-4.41-1.84-9.86S55.24,1,58.21,1,62,5.42,60,10.86"/><path class="cls-4" d="M77,20.72c-3,0-3.79-4.41-1.83-9.86S81.12,1,84.09,1s3.79,4.42,1.84,9.86"/><path class="cls-4" d="M102.89,20.72c-3,0-3.79-4.41-1.83-9.86S107,1,110,1s3.79,4.42,1.83,9.86"/><path class="cls-4" d="M79.85,58.24c-3.67,7.5-12.16,13.29-19.93,13.29-8.44,0-12.83-6.84-9.8-15.28S62.46,41,70.9,41a13.34,13.34,0,0,1,4,.59"/><polygon class="cls-5" points="69.21 59.77 69.8 61.69 79.23 58.79 81.43 68.4 83.38 67.95 80.69 56.24 69.21 59.77"/></g></g></svg>