<svg xmlns="http://www.w3.org/2000/svg" viewBox="0 0 170.65 120.8"><defs><style>.cls-1{fill:#282828;}.cls-1,.cls-4{stroke:#282828;}.cls-1,.cls-2,.cls-3,.cls-4,.cls-5{stroke-linejoin:bevel;stroke-width:2px;}.cls-2{fill:#16cc8e;stroke:#16cc8e;}.cls-3{fill:#fff;stroke:#fff;}.cls-4,.cls-5{fill:none;}.cls-5{stroke:#b0eacd;}</style></defs><title>Asset 49</title><g id="Layer_2" data-name="Layer 2"><g id="Home_Illustrations" data-name="Home Illustrations"><ellipse class="cls-1" cx="99.45" cy="115.21" rx="44.47" ry="4.58"/><path class="cls-2" d="M159.16,22.46l-4.49,3.77,3,3.65-5.43,4.57a33,33,0,0,0-23.57-15.93l2-10.55h12.64l1.32-7H105.65l-1.32,7H117l-2,10.55c-20.64,3.27-39.2,20.63-43.16,41.57-4.4,23.26,10.89,42.12,34.15,42.12s45.69-18.86,50.09-42.12a38.8,38.8,0,0,0-.72-18.33l7.09-6,3,3.65,4.49-3.78Z"/><ellipse class="cls-3" cx="113.94" cy="60.09" rx="34.78" ry="28.79" transform="translate(-10.78 92.33) rotate(-42.3)"/><polyline class="cls-4" points="121.26 35.75 113.87 60.2 125.49 56.14"/><line class="cls-5" x1="50.88" y1="36.09" x2="71.68" y2="36.09"/><line class="cls-5" x1="53.38" y1="46.62" x2="27.32" y2="46.62"/><line class="cls-5" x1="73.18" y1="57.55" x2="54.63" y2="57.55"/><line class="cls-5" y1="66.67" x2="50.62" y2="66.67"/></g></g></svg>